<svg id="Capa_1" enable-background="new 0 0 512.194 512.194" height="512" viewBox="0 0 512.194 512.194" width="512" xmlns="http://www.w3.org/2000/svg"><g><g><path d="m281.433 292.146h-25.336-25.336s-11.936 9.947-16.267 26.176c-2.205 8.262 3.952 16.389 12.503 16.389h29.1 29.1c8.552 0 14.708-8.126 12.503-16.389-4.331-16.23-16.267-26.176-16.267-26.176z" fill="#fe860a"/></g><g><path d="m285.198 334.706h-19.36c8.55 0 14.71-8.12 12.5-16.38-4.33-16.23-16.27-26.18-16.27-26.18h19.37s11.93 9.95 16.26 26.18c2.21 8.26-3.95 16.38-12.5 16.38z" fill="#fe7701"/></g><g><path d="m256.097 7.5c-69.554 0-125.939 56.385-125.939 125.939 0 61.903 51.994 121.895 100.603 158.706h50.672c48.609-36.811 100.603-96.804 100.603-158.706 0-69.554-56.385-125.939-125.939-125.939z" fill="#fdb441"/></g><g><path d="m382.037 133.438c0 61.901-52 121.896-100.604 158.704h-19.59c48.604-36.808 91.007-96.804 91.007-158.704 0-64.617-48.655-117.873-111.346-125.099 4.783-.557 9.658-.841 14.594-.841 69.551 0 125.939 56.388 125.939 125.94z" fill="#fea613"/></g><g><path d="m144.605 172.509c-4.609-13.342-6.947-26.486-6.947-39.069 0-65.308 53.132-118.44 118.439-118.44 20.073 0 39.9 5.11 57.338 14.779 3.622 2.007 8.188.7 10.196-2.923s.7-8.188-2.923-10.196c-19.657-10.899-42-16.66-64.611-16.66-73.579 0-133.439 59.86-133.439 133.439 0 14.254 2.614 29.047 7.769 43.968 1.073 3.104 3.979 5.053 7.088 5.053.813 0 1.639-.133 2.45-.413 3.915-1.353 5.993-5.623 4.64-9.538z"/><path d="m277.779 152.464c0 27.186-43.361 27.557-43.364-.001-.001-4.142-3.358-7.499-7.5-7.499s-7.5 3.357-7.5 7.5c0 9.589 3.939 18.909 10.79 25.614 22.38 21.904 62.575 6.265 62.575-25.614 0-4.143-3.357-7.5-7.5-7.5s-7.501 3.357-7.501 7.5z"/><path d="m201.476 107.699v11.72c0 4.143 3.358 7.5 7.5 7.5s7.5-3.357 7.5-7.5v-11.72c0-4.143-3.358-7.5-7.5-7.5s-7.5 3.358-7.5 7.5z"/><path d="m295.719 107.699v11.72c0 4.143 3.357 7.5 7.5 7.5s7.5-3.357 7.5-7.5v-11.72c0-4.143-3.357-7.5-7.5-7.5s-7.5 3.358-7.5 7.5z"/><path d="m350.547 39.179c-2.926-2.932-7.675-2.937-10.606-.011s-2.937 7.675-.011 10.606c22.316 22.36 34.606 52.073 34.606 83.665 0 26.833-10.337 55.253-30.724 84.471-16.357 23.442-39.348 47.066-64.915 66.735h-45.602c-31.447-24.178-57.886-53.179-74.608-81.876-2.085-3.579-6.676-4.788-10.256-2.705-3.579 2.086-4.79 6.678-2.704 10.256 16.858 28.932 42.914 58.043 73.875 82.657-4.283 5.165-9.624 13.178-12.356 23.411-1.664 6.233-.369 12.736 3.552 17.841 3.896 5.072 9.8 7.981 16.198 7.981h21.6v54.536c0 15.914 8.088 30.399 21.636 38.748 11.273 6.948 20.418 15.274 20.418 29.624 0 9.959-4.874 19.311-13.038 25.015l-12.04 8.412c-3.396 2.373-4.225 7.049-1.853 10.444 1.459 2.087 3.788 3.205 6.155 3.205 1.482 0 2.98-.439 4.289-1.353l12.04-8.413c12.177-8.508 19.446-22.456 19.446-37.312 0-19.698-11.793-32.683-27.548-42.392-8.947-5.515-14.507-15.47-14.507-25.979v-54.535h21.601c6.398 0 12.303-2.909 16.199-7.982 3.92-5.104 5.214-11.607 3.55-17.84-2.731-10.236-8.075-18.25-12.359-23.415 18.898-15.023 43.344-37.554 63.526-66.479 22.178-31.784 33.423-63.092 33.423-93.054.002-35.593-13.845-69.069-38.987-94.261zm-61.047 285.912c-.607.791-1.975 2.119-4.303 2.119h-58.2c-2.328 0-3.695-1.327-4.303-2.119-1.059-1.378-1.407-3.141-.954-4.836 2.682-10.051 8.919-17.426 12.014-20.609h44.685c3.096 3.188 9.337 10.573 12.016 20.61.451 1.694.104 3.457-.955 4.835z"/></g></g></svg>