<svg height="512" viewBox="0 0 512 512" width="512" xmlns="http://www.w3.org/2000/svg"><g id="Mask"><g id="Filled"><path d="m291.257 325.775c19.305 4.756 50.462-4.168 55.218-23.473s-3.155-37.854-22.46-42.61c-21.45-5.284-58.088 35.125-106.722-1.573 0 0-3.714 48.52 73.964 67.656z" fill="#525252"/><path d="m384.47 348.738c-19.305-4.756-42.751-27.131-38-46.436s20.377-32.057 39.682-27.3c21.45 5.284 35.125 58.088 95.24 48.18.008-.001-19.244 44.692-96.922 25.556z" fill="#525252"/><path d="m269.333 168h117.334l7.333-32h-132z" fill="#c49f65"/><path d="m376 64-48.006-56-47.994 56-40-24 22 96h132l22-96z" fill="#d9be86"/><path d="m116.055 66.141c-15.766 5.645-17.736 13.873-22.838 27.327-12.483-7.158-19.227-12.268-34.993-6.622-26.616 9.53-39.077 42.717-52.276 66.593l192.77-69.019c-25.354-10.072-56.047-27.809-82.663-18.279z" fill="#e56161"/><path d="m5.948 153.439s37.509 44.021 114.617 16.414 78.153-85.433 78.153-85.433z" fill="#d65858"/><path d="m198.718 84.42-44.669 15.993a143.878 143.878 0 0 1 -122.049 67.587q-3.348 0-6.656-.157c18.4 9.754 50 18.2 95.221 2.01 77.108-27.608 78.153-85.433 78.153-85.433z" fill="#bf4b4b"/><path d="m154.063 100.408 44.655-15.988c-9.651-3.834-20.077-8.776-30.757-12.9a143.295 143.295 0 0 1 -13.898 28.888z" fill="#d65858"/><path d="m394 136 9.685-42.261a144.62 144.62 0 0 1 -49.685 42.261z" fill="#ccad75"/><path d="m332.6 263.105a80.09 80.09 0 0 1 -63.193 55.763 167.858 167.858 0 0 0 21.85 6.907c19.305 4.756 50.462-4.168 55.218-23.473 3.973-16.132-.903-31.728-13.875-39.197z" fill="#3f3f3f"/><path d="m434.657 316.207a80.078 80.078 0 0 1 -46.9 33.308c74.933 17.089 93.64-26.334 93.64-26.334-20.097 3.312-34.997-.388-46.74-6.974z" fill="#3f3f3f"/><g fill="#848484"><circle cx="372" cy="292" r="12"/><circle cx="392" cy="312" r="8"/></g></g><g id="Outline"><path d="m261.536 169.787a8 8 0 0 0 7.8 6.213h50.664v48a8 8 0 0 0 16 0v-48h50.667a8 8 0 0 0 7.8-6.213l29.334-128a8 8 0 0 0 -11.914-8.647l-34.21 20.524-43.609-50.871a8 8 0 0 0 -12.148 0l-43.6 50.87-34.204-20.523a8 8 0 0 0 -11.916 8.647zm118.756-9.787h-104.584l-3.667-16h111.918zm-104.408-89.14a8 8 0 0 0 10.19-1.654l41.926-48.914 41.931 48.915a8 8 0 0 0 10.19 1.653l23.889-14.334-16.384 71.474h-119.252l-16.374-71.474z"/><circle cx="328" cy="72" r="8"/><path d="m206.72 84.59v-.02c0-.05-.009-.1-.009-.148a7.915 7.915 0 0 0 -.062-1.029c0-.022 0-.044-.006-.066a7.885 7.885 0 0 0 -.233-1.073c-.019-.068-.039-.134-.06-.2-.035-.11-.061-.22-.1-.33a7.949 7.949 0 0 0 -2.469-3.487l-.032-.027a8.053 8.053 0 0 0 -2.035-1.2c-.015-.006-.029-.015-.044-.021-4.19-1.67-8.58-3.57-13.22-5.59-6.2-2.69-12.61-5.47-19.27-7.99-9.87-3.71-22.96-7.97-36.7-7.99h-.02a56.424 56.424 0 0 0 -19.1 3.19c-8.65 3.02-15.14 7.63-19.28 13.69a48.459 48.459 0 0 0 -5.01 9.58c-1.51-.81-2.88-1.5-4.21-2.1a34.2 34.2 0 0 0 -14.43-3.35h-.12a43.645 43.645 0 0 0 -14.78 2.89 58.212 58.212 0 0 0 -20.33 12.771c-13.05 12.44-21.68 29.33-29.29 44.24-2.4 4.7-4.67 9.13-6.96 13.24-.013.022-.02.046-.032.068a8.018 8.018 0 0 0 -.792 2.162c-.008.035-.015.07-.022.106a7.956 7.956 0 0 0 -.11 2.32v.029a7.977 7.977 0 0 0 .419 1.881c.029.08.072.151.1.23.072.185.158.363.244.543s.185.385.292.567.208.325.318.485c.125.182.248.363.386.531.036.045.063.094.1.138 1.08 1.25 7.07 7.85 18.49 14.48a96.2 96.2 0 0 0 10.582 5.29l117.767 328.922a8 8 0 1 0 15.063-5.393l-113.668-317.477a113.938 113.938 0 0 0 23.933 2.5h.09c16.22 0 33.43-3.22 51.15-9.57a173.457 173.457 0 0 0 22.8-9.99 8 8 0 0 0 -3.76-15.07 8.049 8.049 0 0 0 -3.75.94 157.6 157.6 0 0 1 -20.68 9.06c-15.99 5.72-31.4 8.63-45.79 8.63-16.96-.01-32.34-3.94-45.7-11.67-1.734-1.011-3.3-2.016-4.7-2.975l166.708-59.691a80.122 80.122 0 0 1 -7.038 16.674 8 8 0 0 0 13.96 7.81 94.64 94.64 0 0 0 9.79-25.18 63.264 63.264 0 0 0 1.62-11.33zm-184.2 54.42c3.547-6.847 7.23-13.715 11.255-19.89a81.855 81.855 0 0 1 12.4-15.38 42.188 42.188 0 0 1 14.75-9.36 28.552 28.552 0 0 1 9.4-1.95 18.153 18.153 0 0 1 7.94 1.93 95.955 95.955 0 0 1 8.535 4.64c.78.45 1.59.92 2.44 1.41a8.009 8.009 0 0 0 11.46-4.1c.19-.53.39-1.05.57-1.55 2.27-6.1 3.91-10.5 5.93-13.3 2.2-3.04 4.8-5.29 11.55-7.79a40.52 40.52 0 0 1 13.73-2.26h.1c8.46 0 18.58 2.28 30.95 6.97 4.4 1.656 8.845 3.517 13.233 5.4z"/><path d="m168.45 134.08a7.915 7.915 0 0 0 -5.39 2.1h-.01a8 8 0 1 0 10.81 11.79h.01a8 8 0 0 0 -5.42-13.89z"/><path d="m491.865 263.966a28 28 0 0 0 -33.885 20.49 8 8 0 0 0 15.536 3.827 12 12 0 1 1 23.3 5.74c-4.136 16.79-15.324 20.79-17.08 21.32a81.181 81.181 0 0 1 -12.759 1.077 56.232 56.232 0 0 1 -27.95-6.93 8 8 0 0 0 -7.7 14.03 72.166 72.166 0 0 0 32.23 8.83c-.17.14-.35.27-.52.41-10.82 8.42-25.19 12.71-42.72 12.74a143.265 143.265 0 0 1 -33.94-4.53c-7.14-1.7-15.83-6.95-22.13-13.38a42.807 42.807 0 0 1 -7.72-10.34 21.769 21.769 0 0 1 -2.68-9.75 13.586 13.586 0 0 1 .388-3.269v-.016-.021a32.917 32.917 0 0 1 9.173-16.354 21.375 21.375 0 0 1 14.762-5.84 25.314 25.314 0 0 1 6.07.77c.13.03.25.06.38.1a7.995 7.995 0 0 0 9.37-11.43 7.927 7.927 0 0 0 -4.74-3.88c-.39-.12-.79-.23-1.18-.33a41.861 41.861 0 0 0 -9.9-1.23h-.1a37.52 37.52 0 0 0 -25.06 9.7 38.048 38.048 0 0 0 -27.082-23.772c-9.451-2.33-19.312 1.314-30.728 5.532-20.545 7.591-43.824 16.184-72.81-5.521-1.351-1.333-9.332-10.071-5.211-26.8a12 12 0 1 1 23.3 5.741 8 8 0 0 0 15.535 3.827 28 28 0 1 0 -54.374-13.4c-5.173 21 3.042 34.413 7.671 39.976.281 5.4 1.85 15.828 8.985 27.628 12.791 21.153 36.694 36.17 71.043 44.631a55.279 55.279 0 0 0 13.164 1.5 71.239 71.239 0 0 0 24.624-4.491 55.324 55.324 0 0 0 14.317-7.756c.272.588.549 1.176.852 1.764a67.013 67.013 0 0 0 40.26 31.95 159.372 159.372 0 0 0 37.76 4.99h.22c3.533 0 6.976-.179 10.343-.5l-34.889 141.646a8 8 0 1 0 15.535 3.827l36.631-148.694c1.6-.465 3.182-.957 4.724-1.508a69.781 69.781 0 0 0 21.05-11.74 57.593 57.593 0 0 0 13.049-14.836c6.678-2.77 20.2-10.829 25.375-31.843a28.031 28.031 0 0 0 -20.489-33.885zm-153.158 36.422c-1.507 6.115-7.774 11.649-17.195 15.183-9.348 3.507-20.208 4.441-28.342 2.436-42.654-10.507-58.561-29.83-64.465-43.568 29.231 13.842 54.445 4.528 72.04-1.974 8.573-3.168 16.672-6.157 21.356-5a21.966 21.966 0 0 1 15 11.639c2.954 5.94 3.524 13.496 1.606 21.284z"/><path d="m410.71 288.1a8.007 8.007 0 0 0 -5.88 13.43h.01a8 8 0 0 0 11.76-10.84v-.01a8.031 8.031 0 0 0 -5.89-2.58z"/><path d="m328 352a8 8 0 0 0 -8 8v144a8 8 0 0 0 16 0v-144a8 8 0 0 0 -8-8z"/></g></g></svg>